# xmcd
#
# Track frame offsets:
#	151
#	14538
#	27861
#	42986
#	58585
#	73230
#	87509
#	101246
#	114959
#	128484
#	140135
#	152712
#
# Disc length: 2091 seconds
#
# Revision: 0
# Processed by: cddbd v1.5.2PL0 Copyright (c) Steve Scherf et al.
# Submitted via: EasyCDDAExtractor 11.5.3.1
#
DISCID=a708290c
DTITLE=Desert Track - Since You're Been Gone...
DYEAR=1997
DGENRE=Country
TTITLE0=Since You're Been Gone
TTITLE1=My Restless Heart
TTITLE2=Goldwing
TTITLE3=Ten Feet Tall And Bulletproof
TTITLE4=Broke Down
TTITLE5=Thank You Son
TTITLE6=Mercey Blues
TTITLE7=Give It To Me Straight
TTITLE8=Try Not To Look So Pretty
TTITLE9=Fish Ain't Bitin'
TTITLE10=Honky Tonk Place
TTITLE11=spor titel 12
EXTD=
EXTT0=
EXTT1=
EXTT2=
EXTT3=
EXTT4=
EXTT5=
EXTT6=
EXTT7=
EXTT8=
EXTT9=
EXTT10=
EXTT11=
PLAYORDER=
